<svg xmlns="http://www.w3.org/2000/svg" viewBox="0 0 433 496">
  <path d="m226.771161 3.613987 196.226162 113.296525c6.194266 3.576429 10.007084 10.188524 9.999638 17.341126l-.038227 36.747476L433.001 171l-.012873 12.179492a40.11785 40.11785 0 0 1-.043328 1.823218l-.070065 65.996404L433.001 251l-.012873 12.179492c-.001102 1.060096-.044153 2.114193-.127982 3.160258l-.099585 94.999295c-.007422 7.130288-3.810385 13.717367-9.981612 17.289065l-196.53466 113.747628c-6.190918 3.583095-13.824093 3.587066-20.018736.010415L9.999628 379.089632c-6.194255-3.576426-10.007068-10.188509-9.99963-17.3411l.098394-95.436108c-.062334-.915912-.093411-1.837709-.09245-2.764036L.018 251l.096734-.000886.066143-63.667213c-.11727-1.250312-.176254-2.51265-.174934-3.783513L.018 171l.179734-.000886.038433-36.337997c.007415-7.130295 3.810379-13.717383 9.981612-17.289085L206.752433 3.624408c6.190915-3.583093 13.824085-3.587067 20.018728-.01042Zm166.236573 305.745127-156.630118 90.78817c-12.393155 7.183411-27.681477 7.191369-40.082104.020864L39.858734 309.710114l-.03521 34.766035c-.00361 3.467921 1.788892 6.68172 4.721543 8.50384l.278257.166712 166.456308 96.108591c3.000539 1.732452 6.6761 1.784727 9.717134.157506l.292269-.162716 166.692865-96.47671c2.992099-1.731735 4.870747-4.881161 4.985241-8.3212l.005545-.323321.035048-34.769737Zm.084-80.048-156.714118 90.83617c-12.393155 7.183411-27.681477 7.191369-40.082104.020864L39.942734 229.759114l-.047198 45.015521c1.328693 1.160483 2.769367 2.211835 4.3118 3.136313l.407175.239723 156.728423 90.626057c9.157383 5.295131 20.414404 5.370804 29.631038.229175l.43052-.244835 157.025416-91.016219c1.656624-.960224 3.199309-2.065356 4.615778-3.294112l.046048-45.139623ZM211.999949 46.585186l-.292268.162716L45.014816 143.22461c-2.9921 1.731735-4.870747 4.881162-4.985241 8.3212l-.005546.323321-.045409 42.9778c1.305606 1.131882 2.718377 2.158774 4.228716 3.064016l.407175.239723 156.728423 90.626057c9.157383 5.295131 20.414404 5.370804 29.631038.229175l.43052-.244835 157.025416-91.016219c1.689176-.979092 3.259892-2.108843 4.699131-3.366689l.044152-42.856326c.003611-3.46792-1.788892-6.68172-4.721543-8.503839l-.278256-.166712-166.456308-96.108591c-3.00054-1.732453-6.6761-1.784727-9.717135-.157506Z" fill="#5D1FE5" fill-rule="nonzero"/>
</svg>
